<svg width="10" height="12" viewBox="0 0 10 12" fill="none" xmlns="http://www.w3.org/2000/svg">
<path d="M6.24999 9.91658H3.33333V7.41658H6.24999C6.58152 7.41658 6.89946 7.54828 7.13388 7.7827C7.3683 8.01712 7.49999 8.33506 7.49999 8.66658C7.49999 8.99811 7.3683 9.31605 7.13388 9.55047C6.89946 9.78489 6.58152 9.91658 6.24999 9.91658ZM3.33333 2.41659H5.83333C6.16485 2.41659 6.48279 2.54828 6.71721 2.7827C6.95163 3.01712 7.08333 3.33506 7.08333 3.66659C7.08333 3.99811 6.95163 4.31605 6.71721 4.55047C6.48279 4.78489 6.16485 4.91658 5.83333 4.91658H3.33333V2.41659ZM8 5.99159C8.80833 5.42492 9.37499 4.49992 9.37499 3.66659C9.37499 1.78325 7.91666 0.333252 6.04166 0.333252H0.833328V11.9999H6.69999C8.44999 11.9999 9.79166 10.5833 9.79166 8.84159C9.79166 7.57492 9.075 6.49159 8 5.99159Z" fill="#2C2C2C"/>
</svg>
