<svg width="12" height="16" viewBox="0 0 12 16" fill="none" xmlns="http://www.w3.org/2000/svg">
<path d="M0.166672 15.5H11.8333V13.8333H0.166672V15.5ZM6.00001 12.1667C7.32609 12.1667 8.59786 11.6399 9.53554 10.7022C10.4732 9.76452 11 8.49275 11 7.16667V0.5H8.91667V7.16667C8.91667 7.94021 8.60938 8.68208 8.0624 9.22906C7.51542 9.77604 6.77355 10.0833 6.00001 10.0833C5.22646 10.0833 4.48459 9.77604 3.93761 9.22906C3.39063 8.68208 3.08334 7.94021 3.08334 7.16667V0.5H1.00001V7.16667C1.00001 8.49275 1.52679 9.76452 2.46447 10.7022C3.40215 11.6399 4.67392 12.1667 6.00001 12.1667Z" fill="#2C2C2C"/>
</svg>
