<svg width="21" height="21" viewBox="0 0 21 21" fill="none" xmlns="http://www.w3.org/2000/svg">
<path d="M8.0588 0.411774C10.0869 0.411774 12.032 1.21744 13.4661 2.65155C14.9002 4.08565 15.7059 6.03071 15.7059 8.05883C15.7059 9.95295 15.0117 11.6941 13.8706 13.0353L14.1882 13.353H15.1176L21 19.2353L19.2353 21L13.3529 15.1177V14.1882L13.0353 13.8706C11.6941 15.0118 9.95292 15.7059 8.0588 15.7059C6.03068 15.7059 4.08562 14.9002 2.65151 13.4661C1.21741 12.032 0.411743 10.087 0.411743 8.05883C0.411743 6.03071 1.21741 4.08565 2.65151 2.65155C4.08562 1.21744 6.03068 0.411774 8.0588 0.411774ZM8.0588 2.76471C5.11763 2.76471 2.76468 5.11766 2.76468 8.05883C2.76468 11 5.11763 13.353 8.0588 13.353C11 13.353 13.3529 11 13.3529 8.05883C13.3529 5.11766 11 2.76471 8.0588 2.76471Z" fill="white"/>
</svg>
